<svg width="19" height="18" viewBox="0 0 19 18" fill="none" xmlns="http://www.w3.org/2000/svg">
<path d="M15.9577 4.66479H2.61961C1.51465 4.66479 0.618896 5.56055 0.618896 6.66551V14.6684C0.618896 15.7733 1.51465 16.6691 2.61961 16.6691H15.9577C17.0627 16.6691 17.9584 15.7733 17.9584 14.6684V6.66551C17.9584 5.56055 17.0627 4.66479 15.9577 4.66479Z" stroke="white" stroke-linejoin="round"/>
<path d="M15.7643 4.66479V3.41434C15.7642 3.10765 15.6964 2.80476 15.5658 2.52728C15.4351 2.24981 15.2449 2.00458 15.0086 1.80911C14.7722 1.61363 14.4957 1.47273 14.1986 1.39644C13.9016 1.32015 13.5914 1.31036 13.2901 1.36778L2.31283 3.24136C1.83613 3.33221 1.40607 3.58656 1.09684 3.96055C0.787599 4.33454 0.618568 4.80473 0.618897 5.29001V7.3324" stroke="white" stroke-linejoin="round"/>
<path d="M13.957 12.0007C13.6932 12.0007 13.4353 11.9225 13.216 11.776C12.9966 11.6294 12.8257 11.4211 12.7247 11.1774C12.6237 10.9336 12.5973 10.6655 12.6488 10.4067C12.7003 10.148 12.8273 9.91033 13.0138 9.72379C13.2004 9.53726 13.438 9.41022 13.6968 9.35876C13.9555 9.30729 14.2237 9.33371 14.4674 9.43466C14.7111 9.53561 14.9194 9.70657 15.066 9.92591C15.2126 10.1453 15.2908 10.4031 15.2908 10.6669C15.2908 11.0207 15.1503 11.3599 14.9001 11.6101C14.65 11.8602 14.3107 12.0007 13.957 12.0007Z" fill="white"/>
</svg>
